<?xml version="1.0" standalone="no"?>
<!DOCTYPE svg PUBLIC "-//W3C//DTD SVG 20010904//EN"
 "http://www.w3.org/TR/2001/REC-SVG-20010904/DTD/svg10.dtd">
<svg version="1.0" xmlns="http://www.w3.org/2000/svg"
 width="300.000000pt" height="300.000000pt" viewBox="0 0 300.000000 300.000000"
 preserveAspectRatio="xMidYMid meet">
<metadata>
Created by potrace 1.11, written by Peter Selinger 2001-2013
</metadata>
<g transform="translate(0.000000,300.000000) scale(0.100000,-0.100000)"
fill="#000000" stroke="none">
<path d="M1884 2510 c-5 -5 -67 -29 -139 -54 -71 -24 -229 -79 -350 -121 -121
-42 -283 -98 -360 -125 -77 -26 -153 -53 -170 -60 -16 -6 -37 -13 -45 -15 -60
-14 -640 -222 -640 -230 0 -6 -29 -82 -65 -169 -36 -87 -65 -161 -65 -165 0
-4 26 -18 58 -31 31 -13 82 -35 112 -49 30 -14 57 -26 60 -26 3 0 21 -8 40
-17 19 -9 112 -50 205 -91 94 -41 191 -84 215 -95 25 -11 99 -43 165 -72 66
-28 138 -60 160 -70 22 -10 165 -72 317 -138 152 -67 296 -130 320 -141 24
-11 174 -77 333 -146 160 -70 308 -135 330 -145 22 -10 109 -48 193 -85 l153
-66 145 102 c80 56 141 105 137 109 -7 5 -187 85 -468 207 -44 19 -98 43 -120
53 -49 22 -66 29 -375 165 -135 59 -263 115 -285 125 -22 10 -78 34 -125 55
-47 20 -98 43 -115 50 -16 8 -104 46 -195 86 -91 39 -187 81 -215 94 -27 12
-94 41 -147 65 -54 23 -98 44 -98 45 0 5 151 60 680 249 162 58 303 110 313
116 14 8 19 6 26 -12 5 -13 22 -50 37 -83 15 -33 28 -62 29 -65 3 -9 18 -43
101 -230 68 -154 87 -187 110 -199 33 -16 317 -141 321 -141 2 0 -6 17 -17 37
-11 21 -20 41 -20 45 0 4 -11 31 -24 60 -13 29 -45 103 -71 163 -26 61 -52
116 -57 123 -6 6 -8 12 -5 12 3 0 -10 35 -29 78 -43 97 -40 89 -112 257 -33
77 -89 208 -125 290 -36 83 -76 176 -89 207 -15 37 -28 54 -34 48z"/>
</g>
</svg>
