<?xml version="1.0" encoding="utf-8"?>
<!-- Generator: Adobe Illustrator 16.0.0, SVG Export Plug-In . SVG Version: 6.00 Build 0)  -->
<!DOCTYPE svg PUBLIC "-//W3C//DTD SVG 1.1//EN" "http://www.w3.org/Graphics/SVG/1.1/DTD/svg11.dtd">
<svg version="1.1" id="venn_diagram" xmlns="http://www.w3.org/2000/svg" xmlns:xlink="http://www.w3.org/1999/xlink" x="0px"
     y="0px" width="1600px" height="1600px" viewBox="0 0 1600 1600" enable-background="new 0 0 1600 1600" xml:space="preserve">
<path id="buzz" fill="#FF0000" d="M1295.05,1104.85
    c0,272.91-221.24,494.15-494.149,494.15c-272.91,0-494.15-221.24-494.15-494.15c0-189.81,107.02-354.629,264.02-437.399
    c7.4,266.45,225.72,480.17,493.95,480.17c83.101,0,161.41-20.51,230.141-56.75C1294.99,1095.51,1295.05,1100.17,1295.05,1104.85z"/>
<path id="friends" fill="#00FF00" d="M1029.23,652.46c0,4.68-0.07,9.34-0.2,13.99
    C960.3,630.21,882,609.7,798.9,609.7c-268.24,0-486.561,213.729-493.96,480.18c-157-82.78-264.02-247.6-264.02-437.42
    c0-272.91,221.24-494.15,494.16-494.15c97.01,0,187.49,27.95,263.82,76.26C937.32,322.12,1029.23,476.56,1029.23,652.46z"/>
<path id="info" fill="#0000FF" d="M1556.87,652.46
    c0,272.92-221.24,494.16-494.15,494.16c-97.01,0-187.489-27.95-263.819-76.26c138.42-87.551,230.33-241.99,230.33-417.9
    c0-175.9-91.91-330.34-230.33-417.89c76.33-48.31,166.81-76.26,263.819-76.26C1335.63,158.31,1556.87,379.55,1556.87,652.46z"/>
<path id="venn" fill="transparent" d="M1029.03,666.45
    c-4.721,170.09-95.391,318.689-230.13,403.91C664.16,985.14,573.49,836.54,568.77,666.45C637.5,630.21,715.8,609.7,798.9,609.7
    C882,609.7,960.3,630.21,1029.03,666.45z"/>
<path id="big_circle" fill="#FFFFFF" d="M801.412,162.405
    c346.619,0,627.609,280.99,627.609,627.608c0,346.619-280.99,627.608-627.609,627.608c-346.618,0-627.607-280.989-627.607-627.608
    C173.805,443.396,454.794,162.405,801.412,162.405z"/>
</svg>
